<svg xmlns="http://www.w3.org/2000/svg" width="560" height="560" viewBox="0 0 560 560">
  <polygon points="280.00,18.00 309.41,56.61 347.81,26.93 366.23,71.83 411.00,53.10 417.17,101.24 465.26,94.74 458.76,142.83 506.90,149.00 488.17,193.77 533.07,212.19 503.39,250.59 542.00,280.00 503.39,309.41 533.07,347.81 488.17,366.23 506.90,411.00 458.76,417.17 465.26,465.26 417.17,458.76 411.00,506.90 366.23,488.17 347.81,533.07 309.41,503.39 280.00,542.00 250.59,503.39 212.19,533.07 193.77,488.17 149.00,506.90 142.83,458.76 94.74,465.26 101.24,417.17 53.10,411.00 71.83,366.23 26.93,347.81 56.61,309.41 18.00,280.00 56.61,250.59 26.93,212.19 71.83,193.77 53.10,149.00 101.24,142.83 94.74,94.74 142.83,101.24 149.00,53.10 193.77,71.83 212.19,26.93 250.59,56.61" fill="#ffffff"/>
</svg>