<svg xmlns="http://www.w3.org/2000/svg" width="610" height="201" viewBox="0 0 610 201">
  <polygon points="18.00,108.42 28.52,101.26 39.21,94.36 50.08,87.74 61.11,81.40 72.30,75.34 83.64,69.56 95.13,64.08 106.75,58.89 118.50,54.00 130.37,49.41 142.35,45.12 154.44,41.14 166.62,37.47 178.89,34.11 191.25,31.06 203.68,28.33 216.17,25.92 228.73,23.82 241.33,22.04 253.97,20.59 266.65,19.46 279.35,18.65 292.06,18.16 304.79,18.00 317.51,18.16 330.23,18.65 342.93,19.46 355.61,20.59 368.25,22.04 380.85,23.82 393.40,25.92 405.90,28.33 418.33,31.06 430.68,34.11 442.96,37.47 455.14,41.14 467.23,45.12 479.21,49.41 491.08,54.00 502.83,58.89 514.45,64.08 525.93,69.56 537.27,75.34 548.46,81.40 559.50,87.74 570.36,94.36 581.06,101.26 591.58,108.42 539.95,182.15 531.33,176.27 522.56,170.62 513.65,165.19 504.60,159.99 495.43,155.02 486.13,150.28 476.71,145.79 467.18,141.53 457.55,137.52 447.81,133.76 437.99,130.24 428.08,126.98 418.09,123.96 408.02,121.21 397.89,118.71 387.70,116.47 377.45,114.49 367.16,112.77 356.83,111.32 346.46,110.12 336.06,109.19 325.65,108.53 315.22,108.13 304.79,108.00 294.35,108.13 283.93,108.53 273.51,109.19 263.12,110.12 252.75,111.32 242.42,112.77 232.12,114.49 221.88,116.47 211.69,118.71 201.56,121.21 191.49,123.96 181.50,126.98 171.59,130.24 161.76,133.76 152.03,137.52 142.40,141.53 132.87,145.79 123.45,150.28 114.15,155.02 104.97,159.99 95.93,165.19 87.02,170.62 78.25,176.27 69.62,182.15" fill="#ffffff"/>
</svg>