<svg xmlns="http://www.w3.org/2000/svg" width="736" height="192" viewBox="0 0 736 192">
  <polygon points="18.00,49.94 29.67,55.37 41.33,60.64 53.00,65.60 64.67,70.11 76.33,74.03 88.00,77.26 99.67,79.69 111.33,81.26 123.00,81.92 134.67,81.65 146.33,80.47 158.00,78.40 169.67,75.50 181.33,71.87 193.00,67.60 204.67,62.81 216.33,57.66 228.00,52.28 239.67,46.83 251.33,41.47 263.00,36.36 274.67,31.64 286.33,27.45 298.00,23.92 309.67,21.13 321.33,19.19 333.00,18.13 344.67,18.00 356.33,18.79 368.00,20.49 379.67,23.04 391.33,26.37 403.00,30.38 414.67,34.96 426.33,39.98 438.00,45.28 449.67,50.72 461.33,56.14 473.00,61.37 484.67,66.28 496.33,70.71 508.00,74.54 519.67,77.65 531.33,79.97 543.00,81.41 554.67,81.94 566.33,81.54 578.00,80.23 589.67,78.03 601.33,75.03 613.00,71.29 624.67,66.94 636.33,62.10 648.00,56.90 659.67,51.50 671.33,46.05 683.00,40.72 694.67,35.66 706.33,31.01 718.00,26.90 718.00,118.90 706.33,123.01 694.67,127.66 683.00,132.72 671.33,138.05 659.67,143.50 648.00,148.90 636.33,154.10 624.67,158.94 613.00,163.29 601.33,167.03 589.67,170.03 578.00,172.23 566.33,173.54 554.67,173.94 543.00,173.41 531.33,171.97 519.67,169.65 508.00,166.54 496.33,162.71 484.67,158.28 473.00,153.37 461.33,148.14 449.67,142.72 438.00,137.28 426.33,131.98 414.67,126.96 403.00,122.38 391.33,118.37 379.67,115.04 368.00,112.49 356.33,110.79 344.67,110.00 333.00,110.13 321.33,111.19 309.67,113.13 298.00,115.92 286.33,119.45 274.67,123.64 263.00,128.36 251.33,133.47 239.67,138.83 228.00,144.28 216.33,149.66 204.67,154.81 193.00,159.60 181.33,163.87 169.67,167.50 158.00,170.40 146.33,172.47 134.67,173.65 123.00,173.92 111.33,173.26 99.67,171.69 88.00,169.26 76.33,166.03 64.67,162.11 53.00,157.60 41.33,152.64 29.67,147.37 18.00,141.94" fill="#ffffff"/>
</svg>