<svg xmlns="http://www.w3.org/2000/svg" width="516" height="470" viewBox="0 0 516 470">
  <polygon points="258.00,121.84 258.01,121.37 258.12,119.96 258.39,117.63 258.92,114.44 259.78,110.43 261.05,105.68 262.80,100.28 265.08,94.33 267.95,87.93 271.45,81.20 275.61,74.26 280.46,67.24 286.00,60.26 292.23,53.46 299.16,46.95 306.74,40.85 314.95,35.29 323.74,30.35 333.07,26.14 342.85,22.74 353.03,20.22 363.52,18.62 374.24,18.00 385.08,18.38 395.96,19.77 406.77,22.18 417.40,25.59 427.77,29.96 437.75,35.27 447.26,41.47 456.19,48.49 464.46,56.27 471.97,64.74 478.65,73.83 484.43,83.45 489.24,93.52 493.04,103.98 495.79,114.73 497.45,125.71 498.00,136.84 497.45,148.07 495.79,159.33 493.04,170.58 489.24,181.77 484.43,192.87 478.65,203.84 471.97,214.66 464.46,225.33 456.19,235.82 447.26,246.15 437.75,256.30 427.77,266.28 417.40,276.10 406.77,285.77 395.96,295.29 385.08,304.68 374.24,313.94 363.52,323.06 353.03,332.07 342.85,340.94 333.07,349.68 323.74,358.26 314.95,366.68 306.74,374.91 299.16,382.93 292.23,390.69 286.00,398.18 280.46,405.34 275.61,412.15 271.45,418.55 267.95,424.51 265.08,429.98 262.80,434.91 261.05,439.28 259.78,443.05 258.92,446.17 258.39,448.64 258.12,450.41 258.01,451.48 258.00,451.84 257.99,451.48 257.88,450.41 257.61,448.64 257.08,446.17 256.22,443.05 254.95,439.28 253.20,434.91 250.92,429.98 248.05,424.51 244.55,418.55 240.39,412.15 235.54,405.34 230.00,398.18 223.77,390.69 216.84,382.93 209.26,374.91 201.05,366.68 192.26,358.26 182.93,349.68 173.15,340.94 162.97,332.07 152.48,323.06 141.76,313.94 130.92,304.68 120.04,295.29 109.23,285.77 98.60,276.10 88.23,266.28 78.25,256.30 68.74,246.15 59.81,235.82 51.54,225.33 44.03,214.66 37.35,203.84 31.57,192.87 26.76,181.77 22.96,170.58 20.21,159.33 18.55,148.07 18.00,136.84 18.55,125.71 20.21,114.73 22.96,103.98 26.76,93.52 31.57,83.45 37.35,73.83 44.03,64.74 51.54,56.27 59.81,48.49 68.74,41.47 78.25,35.27 88.23,29.96 98.60,25.59 109.23,22.18 120.04,19.77 130.92,18.38 141.76,18.00 152.48,18.62 162.97,20.22 173.15,22.74 182.93,26.14 192.26,30.35 201.05,35.29 209.26,40.85 216.84,46.95 223.77,53.46 230.00,60.26 235.54,67.24 240.39,74.26 244.55,81.20 248.05,87.93 250.92,94.33 253.20,100.28 254.95,105.68 256.22,110.43 257.08,114.44 257.61,117.63 257.88,119.96 257.99,121.37 258.00,121.84" fill="#ffffff"/>
</svg>